<svg width="22" height="22" viewBox="0 0 22 22" fill="none" xmlns="http://www.w3.org/2000/svg">
<path d="M6.25968 15.6574L5.31644 16.2233C5.40933 16.3781 5.53891 16.5077 5.69373 16.6006L6.25968 15.6574ZM17.2788 4.63832L18.3763 4.56516C18.3397 4.0153 17.9018 3.57741 17.352 3.54076L17.2788 4.63832ZM7.20292 15.0914C6.31785 13.6163 5.99781 12.2974 6.07107 11.1821C6.14352 10.0793 6.60493 9.08958 7.44261 8.25191C9.15228 6.54224 12.5032 5.42238 17.2056 5.73588L17.352 3.54076C12.3316 3.20606 8.22844 4.35481 5.88697 6.69627C4.69908 7.88416 3.98566 9.3656 3.87581 11.0379C3.76677 12.6976 4.25696 14.4575 5.31644 16.2233L7.20292 15.0914ZM16.1812 4.71148C16.4947 9.41382 15.3748 12.7648 13.6651 14.4744C12.8275 15.3121 11.8377 15.7735 10.735 15.846C9.61966 15.9192 8.30074 15.5992 6.82562 14.7141L5.69373 16.6006C7.45952 17.6601 9.21945 18.1503 10.8792 18.0412C12.5515 17.9314 14.0329 17.218 15.2208 16.0301C17.5622 13.6886 18.711 9.58546 18.3763 4.56516L16.1812 4.71148Z" fill="white"/>
<path d="M4.5835 17.3334L9.76895 12.1479" stroke="white" stroke-width="2.2" stroke-linecap="round" stroke-linejoin="round"/>
</svg>
