<svg width="22" height="22" viewBox="0 0 22 22" fill="none" xmlns="http://www.w3.org/2000/svg">
<path d="M6.26017 15.6573L5.31692 16.2232C5.40982 16.378 5.5394 16.5076 5.69422 16.6005L6.26017 15.6573ZM17.2793 4.6382L18.3768 4.56503C18.3402 4.01517 17.9023 3.57729 17.3524 3.54063L17.2793 4.6382ZM7.20341 15.0913C6.31833 13.6162 5.99829 12.2973 6.07156 11.182C6.14401 10.0792 6.60542 9.08946 7.44309 8.25179C9.15277 6.54212 12.5037 5.42226 17.2061 5.73576L17.3524 3.54063C12.3321 3.20593 8.22893 4.35469 5.88746 6.69615C4.69956 7.88404 3.98615 9.36547 3.87629 11.0377C3.76726 12.6975 4.25745 14.4574 5.31692 16.2232L7.20341 15.0913ZM16.1817 4.71136C16.4952 9.4137 15.3753 12.7646 13.6656 14.4743C12.8279 15.312 11.8382 15.7734 10.7354 15.8458C9.62015 15.9191 8.30123 15.5991 6.82611 14.714L5.69422 16.6005C7.46001 17.66 9.21994 18.1502 10.8797 18.0411C12.5519 17.9313 14.0334 17.2178 15.2213 16.0299C17.5627 13.6885 18.7115 9.58534 18.3768 4.56503L16.1817 4.71136Z" fill="#474747"/>
<path d="M4.58301 17.3335L9.76846 12.1481" stroke="#474747" stroke-width="2.2" stroke-linecap="round" stroke-linejoin="round"/>
</svg>
