<svg width="15" height="15" viewBox="0 0 15 15" fill="none" xmlns="http://www.w3.org/2000/svg">
<path d="M10.3321 8.91789C9.94158 8.52737 9.30842 8.52737 8.91789 8.91789C8.52737 9.30842 8.52737 9.94158 8.91789 10.3321L10.3321 8.91789ZM13.1679 14.5821C13.5584 14.9726 14.1916 14.9726 14.5821 14.5821C14.9726 14.1916 14.9726 13.5584 14.5821 13.1679L13.1679 14.5821ZM10.0417 6.08333C10.0417 8.26946 8.26946 10.0417 6.08333 10.0417V12.0417C9.37403 12.0417 12.0417 9.37403 12.0417 6.08333H10.0417ZM6.08333 10.0417C3.89721 10.0417 2.125 8.26946 2.125 6.08333H0.125C0.125 9.37403 2.79264 12.0417 6.08333 12.0417V10.0417ZM2.125 6.08333C2.125 3.89721 3.89721 2.125 6.08333 2.125V0.125C2.79264 0.125 0.125 2.79264 0.125 6.08333H2.125ZM6.08333 2.125C8.26946 2.125 10.0417 3.89721 10.0417 6.08333H12.0417C12.0417 2.79264 9.37403 0.125 6.08333 0.125V2.125ZM8.91789 10.3321L13.1679 14.5821L14.5821 13.1679L10.3321 8.91789L8.91789 10.3321Z" fill="#808080"/>
</svg>
