<svg width="20" height="20" viewBox="0 0 20 20" fill="none" xmlns="http://www.w3.org/2000/svg">
<path d="M9.99984 13.3334C11.8408 13.3334 13.3332 11.841 13.3332 10C13.3332 8.15907 11.8408 6.66669 9.99984 6.66669C8.15889 6.66669 6.6665 8.15907 6.6665 10C6.6665 11.841 8.15889 13.3334 9.99984 13.3334Z" stroke="#474747" stroke-width="2" stroke-linecap="round" stroke-linejoin="round"/>
<path d="M15.9179 6.52182L16.7838 6.02163L16.7838 6.02163L15.9179 6.52182ZM15.9727 6.6167L15.1067 7.11689L15.1067 7.11689L15.9727 6.6167ZM16.6056 7.23951L17.0918 6.36563L17.0918 6.36563L16.6056 7.23951ZM17.8982 7.9586L17.4121 8.83248L17.4121 8.83248L17.8982 7.9586ZM18.3264 8.68494L17.3264 8.68721V8.68721L18.3264 8.68494ZM18.3324 11.3115L17.3324 11.3137V11.3137L18.3324 11.3115ZM17.903 12.0422L17.4183 11.1676L17.4183 11.1676L17.903 12.0422ZM16.6073 12.7603L17.092 13.635L16.6073 12.7603ZM15.9719 13.3844L15.106 12.8842L15.106 12.8843L15.9719 13.3844ZM15.9179 13.478L16.7838 13.9782L16.7838 13.9782L15.9179 13.478ZM15.6946 14.3397L14.6948 14.3566V14.3566L15.6946 14.3397ZM15.7196 15.8238L14.7197 15.8407L15.7196 15.8238ZM15.3047 16.5586L14.8027 15.6937L14.8027 15.6937L15.3047 16.5586ZM13.0314 17.878L13.5333 18.7429H13.5333L13.0314 17.878ZM12.1841 17.8717L12.6988 17.0144H12.6988L12.1841 17.8717ZM10.9124 17.1083L10.3977 17.9656L10.9124 17.1083ZM9.08859 17.1073L9.60231 17.9652H9.60231L9.08859 17.1073ZM7.82269 17.8652L7.30897 17.0073L7.30897 17.0073L7.82269 17.8652ZM6.97852 17.8723L7.4778 17.0059L6.97852 17.8723ZM4.69799 16.5582L5.19727 15.6917L4.69799 16.5582ZM4.28084 15.8221L5.2807 15.8389V15.8389L4.28084 15.8221ZM4.30579 14.3444L3.30593 14.3276L4.30579 14.3444ZM4.08583 13.4884L4.95371 12.9916H4.95371L4.08583 13.4884ZM4.02789 13.3871L3.16001 13.8839L3.16001 13.8839L4.02789 13.3871ZM3.39167 12.7586L2.90552 13.6325L3.39167 12.7586ZM2.10215 12.0413L1.616 12.9151H1.616L2.10215 12.0413ZM1.67394 11.3149L0.673939 11.3172L1.67394 11.3149ZM1.66797 8.68841L2.66797 8.68614L1.66797 8.68841ZM2.09737 7.95762L2.58209 8.83229H2.58209L2.09737 7.95762ZM3.39311 7.23956L2.9084 6.36489H2.9084L3.39311 7.23956ZM4.02844 6.61543L3.16253 6.11524L3.16253 6.11524L4.02844 6.61543ZM4.08252 6.52182L4.94843 7.02202L4.94843 7.02202L4.08252 6.52182ZM4.30576 5.66013L5.30562 5.64331L4.30576 5.66013ZM4.28079 4.17604L3.28093 4.19286L4.28079 4.17604ZM4.69569 3.44128L5.19766 4.30617H5.19766L4.69569 3.44128ZM6.96901 2.12187L7.47098 2.98676L7.47098 2.98676L6.96901 2.12187ZM7.81625 2.12814L7.30154 2.9855V2.9855L7.81625 2.12814ZM9.08797 2.89162L8.57326 3.74898V3.74898L9.08797 2.89162ZM10.9118 2.89261L10.3981 2.03465L10.3981 2.03466L10.9118 2.89261ZM12.1777 2.13462L11.664 1.27667V1.27667L12.1777 2.13462ZM13.0219 2.12756L13.5211 1.26112V1.26112L13.0219 2.12756ZM15.3024 3.44173L15.8017 2.57529V2.57529L15.3024 3.44173ZM15.7196 4.17778L14.7197 4.16095V4.16096L15.7196 4.17778ZM15.6946 5.66013L14.6948 5.64331V5.64331L15.6946 5.66013ZM15.0519 7.02201L15.1067 7.11689L16.8386 6.11651L16.7838 6.02163L15.0519 7.02201ZM16.1195 8.11339L17.4121 8.83248L18.3844 7.08472L17.0918 6.36563L16.1195 8.11339ZM17.3264 8.68721L17.3324 11.3137L19.3324 11.3092L19.3264 8.68267L17.3264 8.68721ZM17.4183 11.1676L16.1225 11.8856L17.092 13.635L18.3877 12.9169L17.4183 11.1676ZM15.106 12.8843L15.0519 12.9779L16.7838 13.9782L16.8378 13.8846L15.106 12.8843ZM14.6948 14.3566L14.7197 15.8407L16.7194 15.807L16.6945 14.3229L14.6948 14.3566ZM14.8027 15.6937L12.5294 17.0131L13.5333 18.7429L15.8067 17.4235L14.8027 15.6937ZM12.6988 17.0144L11.4271 16.2509L10.3977 17.9656L11.6694 18.7291L12.6988 17.0144ZM10.0545 15.8705H9.94479V17.8705H10.0545V15.8705ZM8.57487 16.2493L7.30897 17.0073L8.33641 18.7232L9.60231 17.9652L8.57487 16.2493ZM7.4778 17.0059L5.19727 15.6917L4.1987 17.4246L6.47923 18.7388L7.4778 17.0059ZM5.2807 15.8389L5.30565 14.3613L3.30593 14.3276L3.28099 15.8052L5.2807 15.8389ZM4.95371 12.9916L4.89577 12.8904L3.16001 13.8839L3.21795 13.9851L4.95371 12.9916ZM3.87781 11.8848L2.58829 11.1674L1.616 12.9151L2.90552 13.6325L3.87781 11.8848ZM2.67393 11.3127L2.66797 8.68614L0.667974 8.69068L0.673939 11.3172L2.67393 11.3127ZM2.58209 8.83229L3.87783 8.11424L2.9084 6.36489L1.61266 7.08295L2.58209 8.83229ZM4.89436 7.11563L4.94843 7.02202L3.2166 6.02163L3.16253 6.11524L4.89436 7.11563ZM5.30562 5.64331L5.28065 4.15922L3.28093 4.19286L3.3059 5.67695L5.30562 5.64331ZM5.19766 4.30617L7.47098 2.98676L6.46704 1.25699L4.19372 2.5764L5.19766 4.30617ZM7.30154 2.9855L8.57326 3.74898L9.60269 2.03426L8.33097 1.27078L7.30154 2.9855ZM9.94583 4.12935H10.0556V2.12935H9.94583V4.12935ZM11.4255 3.75057L12.6914 2.99258L11.664 1.27667L10.3981 2.03465L11.4255 3.75057ZM12.5226 2.994L14.8031 4.30817L15.8017 2.57529L13.5211 1.26112L12.5226 2.994ZM14.7197 4.16096L14.6948 5.64331L16.6945 5.67695L16.7194 4.1946L14.7197 4.16096ZM14.8031 4.30817C14.7506 4.27791 14.7187 4.22154 14.7197 4.16095L16.7194 4.1946C16.7306 3.52814 16.3792 2.90809 15.8017 2.57529L14.8031 4.30817ZM12.6914 2.99258C12.6395 3.02363 12.5749 3.02417 12.5226 2.994L13.5211 1.26112C12.9451 0.929154 12.2344 0.935103 11.664 1.27667L12.6914 2.99258ZM10.0556 4.12935C10.5381 4.12935 11.0115 3.99844 11.4255 3.75057L10.3981 2.03466C10.2946 2.09662 10.1762 2.12935 10.0556 2.12935V4.12935ZM8.57326 3.74898C8.98783 3.99787 9.46228 4.12935 9.94583 4.12935V2.12935C9.82495 2.12935 9.70633 2.09648 9.60269 2.03426L8.57326 3.74898ZM7.47098 2.98676C7.41849 3.01723 7.35358 3.01675 7.30154 2.9855L8.33097 1.27078C7.75852 0.927117 7.04451 0.921833 6.46704 1.25699L7.47098 2.98676ZM5.28065 4.15922C5.28166 4.21962 5.24991 4.27584 5.19766 4.30617L4.19372 2.5764C3.61899 2.90997 3.26975 3.52843 3.28093 4.19286L5.28065 4.15922ZM4.94843 7.02202C5.19028 6.60333 5.31375 6.12676 5.30562 5.64331L3.3059 5.67695C3.30793 5.79782 3.27707 5.91696 3.2166 6.02163L4.94843 7.02202ZM3.87783 8.11424C4.30098 7.87974 4.65237 7.53454 4.89436 7.11562L3.16253 6.11524C3.10203 6.21997 3.01419 6.30627 2.9084 6.36489L3.87783 8.11424ZM2.66797 8.68614C2.66811 8.74686 2.63521 8.80286 2.58209 8.83229L1.61266 7.08295C1.02838 7.40674 0.666456 8.02269 0.667974 8.69068L2.66797 8.68614ZM2.58829 11.1674C2.64104 11.1967 2.6738 11.2523 2.67393 11.3127L0.673939 11.3172C0.675448 11.9811 1.0358 12.5924 1.616 12.9151L2.58829 11.1674ZM4.89577 12.8904C4.6544 12.4687 4.30241 12.121 3.87781 11.8848L2.90552 13.6325C3.01167 13.6916 3.09967 13.7785 3.16001 13.8839L4.89577 12.8904ZM5.30565 14.3613C5.31375 13.8814 5.19216 13.4082 4.95371 12.9916L3.21795 13.9851C3.27756 14.0893 3.30796 14.2076 3.30593 14.3276L5.30565 14.3613ZM5.19727 15.6917C5.24978 15.722 5.28172 15.7783 5.2807 15.8389L3.28099 15.8052C3.26973 16.4717 3.62114 17.0918 4.1987 17.4246L5.19727 15.6917ZM7.30897 17.0073C7.36083 16.9762 7.42543 16.9757 7.4778 17.0059L6.47923 18.7388C7.05531 19.0707 7.76597 19.0648 8.33641 18.7232L7.30897 17.0073ZM9.94479 15.8705C9.46229 15.8705 8.98883 16.0014 8.57487 16.2493L9.60231 17.9652C9.7058 17.9032 9.82417 17.8705 9.94479 17.8705V15.8705ZM11.4271 16.2509C11.0125 16.002 10.5381 15.8705 10.0545 15.8705V17.8705C10.1754 17.8705 10.294 17.9034 10.3977 17.9656L11.4271 16.2509ZM12.5294 17.0131C12.5819 16.9826 12.6468 16.9831 12.6988 17.0144L11.6694 18.7291C12.2418 19.0728 12.9559 19.078 13.5333 18.7429L12.5294 17.0131ZM14.7197 15.8407C14.7187 15.7802 14.7505 15.724 14.8027 15.6937L15.8066 17.4235C16.3814 17.0899 16.7306 16.4714 16.7194 15.807L14.7197 15.8407ZM15.0519 12.9779C14.8101 13.3965 14.6866 13.8731 14.6948 14.3566L16.6945 14.3229C16.6924 14.2021 16.7233 14.0829 16.7838 13.9782L15.0519 12.9779ZM16.1225 11.8856C15.6994 12.1201 15.348 12.4653 15.106 12.8842L16.8378 13.8846C16.8983 13.7799 16.9862 13.6936 17.092 13.635L16.1225 11.8856ZM17.3324 11.3137C17.3323 11.253 17.3652 11.197 17.4183 11.1676L18.3877 12.9169C18.972 12.5931 19.3339 11.9772 19.3324 11.3092L17.3324 11.3137ZM17.4121 8.83248C17.3593 8.80314 17.3266 8.74757 17.3264 8.68721L19.3264 8.68267C19.3249 8.01873 18.9646 7.40749 18.3844 7.08472L17.4121 8.83248ZM15.1067 7.11689C15.348 7.53453 15.698 7.87892 16.1195 8.11339L17.0918 6.36563C16.9864 6.30702 16.8989 6.22092 16.8386 6.11651L15.1067 7.11689ZM16.7838 6.02163C16.7233 5.91696 16.6924 5.79782 16.6945 5.67695L14.6948 5.64331C14.6866 6.12676 14.8101 6.60333 15.0519 7.02202L16.7838 6.02163Z" fill="#474747"/>
</svg>
